<?xml version="1.0" encoding="utf-8"?>
<!-- Generator: Adobe Illustrator 19.0.0, SVG Export Plug-In . SVG Version: 6.00 Build 0)  -->
<svg version="1.0" id="图层_1" xmlns="http://www.w3.org/2000/svg" xmlns:xlink="http://www.w3.org/1999/xlink" x="0px" y="0px"
	 viewBox="0 0 512 512" style="enable-background:new 0 0 512 512;" xml:space="preserve">
<style type="text/css">
	.st0{fill:#EFD2B6;}
	.st1{fill:#1B1C1C;}
	.st2{fill:#B3D3CF;}
	.st3{fill:#FFFFFF;}
	.st4{fill:none;stroke:#2A2A29;stroke-miterlimit:10;}
	.st5{fill:#CCE5E8;}
	.st6{fill:#2A2A29;}
	.st7{fill:#1C1D1E;}
	.st8{fill:#9B8E80;}
	.st9{fill:#F7C7C8;}
	.st10{fill:#030000;}
	.st11{fill:none;stroke:#FFFFFF;stroke-width:2;stroke-linecap:round;stroke-miterlimit:10;}
</style>
<g id="XMLID_1_">
	<g id="XMLID_49_" transform="translate(-161.763 -248.822)">
		<g id="XMLID_130_" transform="matrix(-1.25 0 0 -1.25 232.219 530.113)">
			<path id="XMLID_47_" class="st0" d="M-54,64.8c0,0,7.1-0.3,13.4,2.4c6.2,2.6,14.7,5,13.3,14c-0.9,5.6-14.2,2.7-14.2,2.7
				s-9.8-3.6-16.3-3.2"/>
		</g>
		<g id="XMLID_128_" transform="matrix(-1.25 0 0 -1.25 232.219 531.988)">
			<path id="XMLID_46_" class="st1" d="M-54,65.4c7-0.2,13.5,2.1,19.7,4.9c2.8,1.3,5.5,3.2,7,5.9c1.2,2.2,1.8,6.2,0.1,8.3
				c-2.9,3.7-9.6,2.5-13.6,1.9c-5.8-1-11-3.6-17.1-3.4c-1.2,0-1.2-1.8,0-1.9c9.1-0.3,17.4,5.5,26.6,3.7c3.8-0.7,3.8-4.7,2.4-7.7
				c-1.3-2.8-4.3-4.4-7-5.6c-5.7-2.6-11.7-4.6-18.1-4.4C-55.2,67.3-55.2,65.4-54,65.4"/>
		</g>
		<g id="XMLID_126_" transform="matrix(-1.25 0 0 -1.25 362.313 286.957)">
			<path id="XMLID_45_" class="st2" d="M-14.6-8.8c0,0,0.2,16.3,8.9,16.2c8.7-0.2,5.1-19,5.1-19"/>
		</g>
		<g id="XMLID_124_" transform="matrix(-1.25 0 0 -1.25 360.438 286.957)">
			<path id="XMLID_44_" class="st1" d="M-15.2-8.8c0.1,5,1.7,16.9,9.1,15c5.6-1.4,3.8-13.5,3-17.6c-0.2-1.2,1.6-1.7,1.8-0.5
				c1,5.6,2.7,18.1-4.8,20C-14.7,10.3-17-3-17.1-8.8C-17.1-10-15.2-10-15.2-8.8"/>
		</g>
		<g id="XMLID_122_" transform="matrix(-1.25 0 0 -1.25 354.566 741.752)">
			<path id="XMLID_43_" class="st0" d="M-17,128.9c0,0,12.3-21.2,18.9-17c6.6,4.2-8.5,22-8.5,22"/>
		</g>
		<g id="XMLID_120_" transform="matrix(-1.25 0 0 -1.25 356.185 742.698)">
			<path id="XMLID_42_" class="st1" d="M-16.5,129.2c2.2-3.8,4.7-7.4,7.5-10.7c2.7-3.3,7.5-8.9,12.3-6.8c4.8,2,1.5,9.2-0.1,12.2
				c-2.1,4.1-4.9,8-7.9,11.5c-0.8,0.9-2.1-0.4-1.3-1.3c2.4-2.8,15-18.8,7.9-20.9c-4.1-1.2-9.3,6.3-11.3,8.9c-2,2.6-3.8,5.3-5.5,8.2
				C-15.5,131.2-17.1,130.3-16.5,129.2"/>
		</g>
		<g id="XMLID_118_" transform="matrix(-1.25 0 0 -1.25 568.563 661.019)">
			<path id="XMLID_41_" class="st2" d="M47.9,104.5c-8.2,0.9-8.2,2-12.4,0.9c-4.2-1.1-15.5-8.1-11.2-11.3s4.8-4.3,10.6-3.4
				c5.7,0.9,17.7,3.6,17.7,3.6"/>
		</g>
		<g id="XMLID_116_" transform="matrix(-1.25 0 0 -1.25 568.563 659.144)">
			<path id="XMLID_40_" class="st1" d="M47.9,103.9c-5.5,0.7-9.9,2.3-15.2-0.1c-3.3-1.5-10.8-5.4-10.3-9.9c0.3-2.2,3.5-3.8,5.1-4.9
				c2.4-1.6,5.4-1.1,8.1-0.7c5.7,1,11.4,2.2,17.1,3.5c1.2,0.3,0.7,2.1-0.5,1.8c-3.8-0.8-7.6-1.6-11.3-2.4C38,90.6,35,90,32.1,89.8
				c-3-0.2-5.4,1.9-7.5,3.8c-2.9,2.5,8.6,8.6,10.3,9.2c4.1,1.6,8.8-0.2,13-0.7C49,101.9,49,103.8,47.9,103.9"/>
		</g>
		<g id="XMLID_114_" transform="matrix(-1.25 0 0 -1.25 167.181 387.779)">
			<path id="XMLID_39_" class="st3" d="M-73.7,21.7C-73.7,6.9-86.3-5-101.9-5c-15.5,0-28.1,12-28.1,26.7s12.6,26.7,28.1,26.7
				C-86.3,48.4-73.7,36.5-73.7,21.7"/>
		</g>
		<g id="XMLID_112_" transform="matrix(-1.25 0 0 -1.25 169.056 387.779)">
			<path id="XMLID_38_" class="st1" d="M-73.2,21.7C-73.4,6.9-86-3.9-100.4-4.1c-14.4-0.2-27,11.3-27.2,25.8
				c-0.2,14.8,13.2,25.6,27.2,25.8C-86,47.7-73.4,36.2-73.2,21.7c0-1.2,1.9-1.2,1.9,0c-0.2,13.3-9.9,24.1-22.7,27
				c-13,2.9-26.8-3.5-32.7-15.4c-5.9-11.7-1.6-25.6,8.5-33.4c10.5-8.1,26.4-7.7,36.6,0.6c6.4,5.3,10.2,12.8,10.4,21.1
				C-71.3,22.9-73.2,22.9-73.2,21.7"/>
		</g>
		<g id="XMLID_110_" transform="matrix(-1.25 0 0 -1.25 167.181 387.175)">
			<path id="XMLID_37_" class="st1" d="M-73.7,21.5c0-3.9-3.2-7-7.2-7s-7.2,3.2-7.2,7s3.2,7,7.2,7S-73.7,25.4-73.7,21.5"/>
		</g>
		<g id="XMLID_108_" transform="matrix(-1.25 0 0 -1.25 167.181 387.175)">
			<path id="XMLID_36_" class="st4" d="M-73.7,21.5c0-3.9-3.2-7-7.2-7s-7.2,3.2-7.2,7s3.2,7,7.2,7S-73.7,25.4-73.7,21.5z"/>
		</g>
		<g id="XMLID_106_" transform="matrix(-1.25 0 0 -1.25 178.226 386.112)">
			<path id="XMLID_35_" class="st3" d="M-70.4,21.2c0-1.3-1-2.3-2.3-2.3c-1.3,0-2.3,1-2.3,2.3c0,1.3,1,2.3,2.3,2.3
				C-71.4,23.5-70.4,22.5-70.4,21.2"/>
		</g>
		<g id="XMLID_104_" transform="matrix(-1.25 0 0 -1.25 178.226 386.112)">
			<path id="XMLID_34_" class="st4" d="M-70.4,21.2c0-1.3-1-2.3-2.3-2.3c-1.3,0-2.3,1-2.3,2.3c0,1.3,1,2.3,2.3,2.3
				C-71.4,23.5-70.4,22.5-70.4,21.2z"/>
		</g>
		<g id="XMLID_102_" transform="matrix(-1.25 0 0 -1.25 553.109 395.707)">
			<path id="XMLID_33_" class="st2" d="M43.2,24.1c0.6,8.1,13.7,36,36,46S110.3,80,132,81.9s54.7-17.4,60.9-25.5
				c6.2-8.1,10.6-15.4,11.8-26.3C206,19.1,206,14.2,207.8,3c1.9-11.2-0.6-54.1-7.5-70.2c-4.5-10.7-11.5-37.1-26.6-57.8
				c-7.8-10.6-17.7-19.6-30.5-24.3c-37.9-13.7-60.3-5.8-65.9-5.6c-16.1,0.6-19.4,5.3-37.9,27.3c-11.2,13.4-13,29.4-13,40.5
				c0,13.6,18.6,45.8,19.3,64.5C46.8,10.7,41.6,2.2,43.2,24.1"/>
		</g>
		<g id="XMLID_100_" transform="matrix(-1.25 0 0 -1.25 551.234 395.707)">
			<path id="XMLID_32_" class="st1" d="M42.6,24.1c0.3,4,2.2,8.1,3.9,11.7c2.7,5.7,6.1,11.1,10.1,16c4.4,5.6,9.7,10.5,15.7,14.3
				c6.9,4.4,15.1,7.3,22.9,9.7c6.6,2,13.4,3.2,20.3,3.9c7.1,0.7,14.5,1.8,21.7,1.3c13.9-1,27.6-7.4,39.5-14.3
				c4.5-2.6,8.9-5.5,12.6-9.2c4.9-4.7,8.7-11.7,11-18c2.8-7.8,2.8-16.4,3.6-24.5c0.6-5.8,1.8-11.6,2.1-17.4
				c0.6-12-0.4-24.3-1.8-36.2c-0.8-6.4-1.8-12.9-3.3-19.2c-1.1-4.7-2.9-9.1-4.6-13.6c-10.6-28.7-22-63.4-52.9-76.1
				c-14.5-6-30.9-9-46.7-8.7c-4.7,0.1-9.3,0.6-13.9,1.3c-2.5,0.4-5.1,1-7.6,1.1c-4.8,0.2-9.6,1-13.8,3.4c-4.8,2.7-8.5,7-12.1,11.1
				c-5.8,6.6-12.1,13.3-16.3,21c-3.9,7.1-5.8,15.1-6.6,23.1c-0.6,5.6-0.5,10.9,1,16.3c1.7,6.2,4.1,12.2,6.4,18.1
				c4.7,12,10.6,24.7,11.4,37.7c0.6,9.1,0.5,18.7-1.3,27.7C42.5,11.2,42.1,17.3,42.6,24.1c0.1,1.2-1.8,1.2-1.9,0
				c-0.3-4.5-0.5-9.1,0.1-13.6c0.4-2.9,1.1-5.8,1.6-8.7c2-12.1,1.8-25.5-1.6-37.3c-3.8-13.3-9.9-25.9-14.2-39
				c-3.8-11.4-3-23.3,0.5-34.8c2.3-7.8,6.5-14.5,11.7-20.7c4.7-5.7,9.4-11.5,14.7-16.7c3.1-3.1,6.6-5.7,10.8-7.2
				c4-1.5,8.2-1.5,12.3-1.9c7.9-0.9,15.5-2.4,23.5-2.4c15.4,0.1,31.6,3.5,45.7,9.6c28.9,12.6,41.3,46,51,73.5
				c1.6,4.5,3.6,8.9,4.9,13.5c1.7,5.8,2.6,11.8,3.5,17.8c1.7,12.3,2.7,24.9,2.6,37.3c0,4.8-0.6,9.4-1.3,14.1
				c-1.2,7.9-1.4,15.8-2.5,23.7c-1.7,12-8.2,23.8-18,31.2c-10.2,7.7-22.3,13.5-34.4,17.3c-6.1,1.9-12.5,3.2-19,3.1
				c-7.3-0.1-14.9-1.1-22.1-2c-8.9-1.2-17.4-3.6-25.8-6.9c-9.1-3.6-17.1-8-24.1-14.9C54.8,53.4,50,46.4,46.1,39.1
				c-2.4-4.5-4.9-9.8-5.4-15C40.6,22.9,42.5,22.9,42.6,24.1"/>
		</g>
		<g id="XMLID_98_" transform="matrix(-1.25 0 0 -1.25 516.063 741.331)">
			<path id="XMLID_31_" class="st0" d="M31.9,128.8c0,0-6.5-19.7,3.4-20.8s10.9,18.2,10.9,18.2"/>
		</g>
		<g id="XMLID_96_" transform="matrix(-1.25 0 0 -1.25 517.871 740.833)">
			<path id="XMLID_30_" class="st1" d="M32.5,128.7c-2-6-5.4-20.6,4.1-22c9.3-1.4,11.7,12.5,12.1,19.1c0.1,1.2-1.8,1.2-1.9,0
				c-0.3-5.7-2.2-18.4-10.2-17.2c-7.5,1.1-3.7,15.1-2.2,19.6C34.7,129.3,32.9,129.8,32.5,128.7"/>
		</g>
		<g id="XMLID_94_" transform="matrix(-1.25 0 0 -1.25 520.048 735.906)">
			<path id="XMLID_29_" class="st2" d="M33.2,127.2c0,0,1.5-7.4,4.5-9.3c0,0,0.5,5.3,1.1,5.5c0.5,0.2,7.6-5.6,6.5-6.4
				c-1-0.8,6,3.7,6,5.7"/>
		</g>
		<g id="XMLID_92_" transform="matrix(-1.25 0 0 -1.25 521.855 736.404)">
			<path id="XMLID_28_" class="st1" d="M33.7,127.3c0.7-3.5,2-7.7,4.9-9.9c0.6-0.5,1.3,0.2,1.4,0.8c0.1,0.9,0.2,1.8,0.4,2.7
				c0.1,0.6,0.2,1.1,0.3,1.7c0.1,0.6-0.8,0.3,0.1-0.3c0.8-0.5,5-4.5,5.1-4.4c-0.2-0.2-0.3-0.6-0.2-0.9c0,0,0,0,0,0
				c0.2-0.6,0.8-0.8,1.4-0.6c2.2,1.1,6.1,3.8,6.5,6.4c0.2,1.2-1.6,1.7-1.8,0.5c-0.3-2-3.9-4.4-5.7-5.3c0.5-0.2,0.9-0.4,1.4-0.6
				c0.2-0.5-0.4-1.2,0.1-0.5c0.1,0.2,0.1,0.4,0.1,0.7c0,0.7-0.6,1.3-0.9,1.8c-1.5,1.7-3.2,3.2-5,4.5c-3.4,2.5-3.4-3.5-3.6-5.7
				c0.5,0.3,0.9,0.5,1.4,0.8c-2.5,1.9-3.5,5.8-4.1,8.8C35.3,129,33.5,128.5,33.7,127.3"/>
		</g>
		<g id="XMLID_90_" transform="matrix(-1.25 0 0 -1.25 358.021 720.684)">
			<path id="XMLID_27_" class="st5" d="M-15.9,122.5c-12.8,6.9-13.1,17.2-3.1,30.1c7.4,9.5,15.7,18.8,20.3,46
				C3.7,213.1,18,230.1,31.2,229c13.2-1,19.4-15,14.6-28.4c-4.8-13.4-22.4-64.9-35.1-71.6C10.6,129.1-4.2,116.3-15.9,122.5"/>
		</g>
		<g id="XMLID_88_" transform="matrix(-1.25 0 0 -1.25 295.931 400.707)">
			<path id="XMLID_26_" class="st3" d="M-34.7,25.6c0-17.5-15.2-31.7-33.8-31.7c-18.7,0-33.8,14.2-33.8,31.7s15.2,31.7,33.8,31.7
				C-49.9,57.3-34.7,43.1-34.7,25.6"/>
		</g>
		<g id="XMLID_86_" transform="matrix(-1.25 0 0 -1.25 297.806 400.707)">
			<path id="XMLID_23_" class="st6" d="M-34.2,25.6c-0.2-15.5-12.1-27.5-27-30.3c-15.2-2.8-31.3,5.5-37,20
				c-5.6,14.4,1.9,29.9,14.9,37c13.7,7.4,31.4,4.1,41.6-7.4C-36.8,39.7-34.3,32.7-34.2,25.6c0-1.2,1.9-1.2,1.9,0
				C-32.5,39-40.9,50.3-53,55.5c-12.4,5.3-27.1,2.8-37.4-5.7c-10.2-8.4-13.9-22.5-9.5-34.9C-95.5,2.5-83.4-5.4-70.7-6.8
				C-51.3-9-32.6,5.8-32.3,25.6C-32.3,26.8-34.2,26.8-34.2,25.6"/>
		</g>
		<g id="XMLID_84_" transform="matrix(-1.25 0 0 -1.25 322.106 391.54)">
			<path id="XMLID_22_" class="st1" d="M-26.8,22.8c0-5.5-4.9-9.9-11-9.9s-11,4.5-11,9.9s4.9,9.9,11,9.9S-26.8,28.3-26.8,22.8"/>
		</g>
		<g id="XMLID_82_" transform="matrix(-1.25 0 0 -1.25 322.106 391.54)">
			<path id="XMLID_21_" class="st4" d="M-26.8,22.8c0-5.5-4.9-9.9-11-9.9s-11,4.5-11,9.9s4.9,9.9,11,9.9S-26.8,28.3-26.8,22.8z"/>
		</g>
		<g id="XMLID_80_" transform="matrix(-1.25 0 0 -1.25 344.188 385.73)">
			<path id="XMLID_20_" class="st3" d="M-20.1,21.1c0-1.6-1.3-2.9-2.9-2.9s-2.9,1.3-2.9,2.9S-24.6,24-23,24S-20.1,22.7-20.1,21.1"/>
		</g>
		<g id="XMLID_78_" transform="matrix(-1.25 0 0 -1.25 344.188 385.73)">
			<path id="XMLID_19_" class="st4" d="M-20.1,21.1c0-1.6-1.3-2.9-2.9-2.9s-2.9,1.3-2.9,2.9S-24.6,24-23,24S-20.1,22.7-20.1,21.1z"
				/>
		</g>
		<g id="XMLID_76_" transform="matrix(-1.25 0 0 -1.25 497.938 338.207)">
			<path id="XMLID_18_" class="st2" d="M26.5,6.7L14.2,22.2c0,0-6.1,9.9,3.4,13.8c9.5,3.9,16.1-3.6,16.6-4.4
				c0.5-0.7,8.2-12.3,8.2-12.3"/>
		</g>
		<g id="XMLID_74_" transform="matrix(-1.25 0 0 -1.25 496.612 336.881)">
			<path id="XMLID_17_" class="st1" d="M26.1,6.3c-3.1,4-6.3,8-9.4,11.9c-2.5,3.2-5.1,6.1-4.4,10.8c0.8,5.3,8.1,6.7,12.5,5.8
				c2.8-0.6,5.9-2.4,7.6-4.7c3-3.9,5.5-8.2,8.2-12.3c0.7-1,2.3-0.1,1.6,0.9c-2.8,4.3-5.4,9.3-8.8,13.1c-2.5,2.7-5.9,4.5-9.5,5
				c-4,0.6-9.7-0.8-12.1-4.5c-2.7-4.2-1.1-9.4,1.7-13L24.7,5C25.5,4,26.8,5.4,26.1,6.3"/>
		</g>
		<g id="XMLID_72_" transform="matrix(-1.25 0 0 -1.25 501.063 298.415)">
			<path id="XMLID_16_" class="st7" d="M27.4-5.4c0,0-0.1-5.6,2.5-8.1s4.8-4.2,6-3.3c1.2,0.9-2.2,7.8-3.6,8.6
				C30.8-7.3,29.9-5.1,27.4-5.4"/>
		</g>
		<g id="XMLID_70_" transform="matrix(-1.25 0 0 -1.25 502.938 298.415)">
			<path id="XMLID_15_" class="st6" d="M28-5.4c0-2.8,0.5-5.9,2.2-8.2c0.8-1.1,6.6-6.8,8.1-3.6c1.1,2.3-1.1,5.8-2.3,7.7
				c-0.7,1.2-1.6,1.8-2.6,2.8c-1.4,1.3-2.5,2.3-4.5,2.2c-1.2-0.1-1.2-1.9,0-1.9c1.7,0.1,4-2,5.1-3.4c1.2-1.6,2.1-3.6,2.6-5.5
				c0.5-2-2.3,0.4-2.8,0.7c-1.4,1.1-2.5,2.3-3.2,4c-0.6,1.6-0.8,3.4-0.8,5.1C29.8-4.2,28-4.2,28-5.4"/>
		</g>
		<g id="XMLID_68_" transform="matrix(-1.25 0 0 -1.25 222.217 397.56)">
			<path id="XMLID_14_" class="st8" d="M-57.1,24.7c0-4.5-5.1-8.2-11.4-8.2s-11.4,3.7-11.4,8.2s5.1,8.2,11.4,8.2
				S-57.1,29.2-57.1,24.7"/>
		</g>
		<g id="XMLID_66_" transform="matrix(-1.25 0 0 -1.25 224.092 397.56)">
			<path id="XMLID_13_" class="st1" d="M-56.5,24.7c-0.6-9.8-20.3-9.8-20.9,0c-0.3,5.1,6.6,7.1,10.5,7.3
				C-62.6,32.1-56.8,29.6-56.5,24.7c0.1-1.2,1.9-1.2,1.9,0c-0.7,12.2-23.9,12.2-24.6,0c-0.4-6.2,7.4-9,12.3-9.1
				c5.5-0.2,12,3.1,12.3,9.1C-54.6,25.9-56.4,25.9-56.5,24.7"/>
		</g>
		<g id="XMLID_64_" transform="matrix(-1.25 0 0 -1.25 261.966 436.419)">
			<path id="XMLID_12_" class="st3" d="M-45,36.4V21.1c0,0-0.9-2.1,5.1-2.4c6-0.3,6.7,0,6.7,0s3.1-1,4.3,4c1.2,5,4.3,14.4,4.3,14.4
				L-45,36.4z"/>
		</g>
		<g id="XMLID_62_" transform="matrix(-1.25 0 0 -1.25 263.842 436.419)">
			<path id="XMLID_11_" class="st1" d="M-44.5,36.4V22.8c0-1.3-0.3-1.7,0.1-2.7c0.7-2.2,4.2-2.3,6-2.4c2.1-0.2,4.8-0.6,6.9,0
				c-1-0.3,0.6-0.1,0.9-0.1c1,0.1,1.8,0.7,2.5,1.4c2.2,2.3,2.5,7.1,3.4,10c0.8,2.6,1.6,5.1,2.4,7.6c0.2,0.6-0.3,1.2-0.9,1.2
				c-6.8-0.2-13.6-0.3-20.4-0.5c-1.2,0-1.2-1.9,0-1.9c6.8,0.2,13.6,0.3,20.4,0.5c-0.3,0.4-0.6,0.8-0.9,1.2
				c-1.6-4.7-3.1-9.5-4.3-14.4c-0.4-1.4-1.1-3.3-2.8-3.4c-0.3,0-0.5,0.2-0.8,0c-1.5-0.5-3.8-0.1-5.3,0c-1.4,0.1-5.3,0-5.3,1.6v4.1
				v11.2C-42.6,37.6-44.5,37.6-44.5,36.4"/>
		</g>
		<g id="XMLID_60_" transform="matrix(-1.25 0 0 -1.25 246.562 409.654)">
			<path id="XMLID_10_" class="st0" d="M-49.7,28.3c0,0-5.2,2.5-10.6,1.1c-5.4-1.3-11.7-6.9-11.2-12.3c0.5-5.4,6-9,9.3-9.1
				c1.3,0,4.2-1.1,11-1.1c6.1,0,7.1,0.6,10.8,0.7c4.6,0.2,7.9,3.7,7.8,10.3s-4.6,9.8-9.3,9.5C-46.6,27.1-49.7,28.3-49.7,28.3"/>
		</g>
		<g id="XMLID_58_" transform="matrix(-1.25 0 0 -1.25 245.616 408.035)">
			<path id="XMLID_6_" class="st1" d="M-50,27.8c-8.6,3.9-21.2-0.1-23.1-10.2C-73.9,13.2-70.5,9.1-67,7c3-1.7,7.5-1.9,10.8-2.2
				c5.3-0.5,10.4,0.2,15.7,0.6c4.5,0.3,7.1,4.1,7.9,8.2c0.8,4.5-0.5,9.2-4.3,12c-3.9,2.8-9.1,0.7-13.4,2.4c-1.1,0.4-1.6-1.4-0.5-1.8
				c2.8-1.1,5.9-1.1,8.8-1c5.4,0.1,7.7-5,7.7-9.6c0-4.8-2.8-8.2-7.6-8.4c-3.8-0.2-7.4-0.7-11.2-0.7c-6.5,0.1-15.5,0.7-18,7.9
				c-1.8,5.1,3.4,9.6,7.3,11.7c3.8,2.1,8.9,1.9,12.8,0.1C-49.8,25.7-48.9,27.3-50,27.8"/>
		</g>
		<g id="XMLID_56_" transform="matrix(-1.25 0 0 -1.25 441.036 566.332)">
			<path id="XMLID_4_" class="st0" d="M9.2,75.8c0,0-1.2-6.5,0-12.5c1.2-6.1,4.8-14.9,12.1-13.3c7.3,1.6,3.2,12.3,3.2,12.3
				s-2.2,8.7-1,14.5"/>
		</g>
		<g id="XMLID_54_" transform="matrix(-1.25 0 0 -1.25 442.844 565.834)">
			<path id="XMLID_5_" class="st1" d="M9.8,75.6C8.6,69.4,9,62.7,11.5,56.8c2.1-4.8,7-10.8,13-7.7c4.2,2.2,3.9,7.3,2.9,11.3
				c-1.3,5.1-2.5,10.4-1.5,15.7c0.2,1.2-1.6,1.7-1.8,0.5c-0.9-4.8-0.2-9.8,0.9-14.6c0.6-2.8,1.6-5.3,1-8.2c-0.6-3.1-3.8-4-6.5-3.4
				c-3,0.7-4.8,4-6,6.6c-2.6,5.5-2.9,12.1-1.9,18.1C11.8,76.3,10,76.8,9.8,75.6"/>
		</g>
		<g id="XMLID_52_" transform="matrix(-1.25 0 0 -1.25 450.313 560.646)">
			<path id="XMLID_7_" class="st2" d="M12,74.1c3.7-5.4,12.6-6,12.6-6s-1.5,2.2,0,4.5c0,0,1.3-2.7,4-4l4.8,5.4"/>
		</g>
		<g id="XMLID_50_" transform="matrix(-1.25 0 0 -1.25 451.932 561.592)">
			<path id="XMLID_8_" class="st1" d="M12.5,74.4c3.1-4.1,8.4-6.1,13.4-6.4c0.7-0.1,1.1,0.8,0.8,1.4c-0.6,1.1-0.6,2.2,0,3.6h-1.6
				c0.9-1.9,2.5-3.3,4.3-4.3c0.4-0.2,0.8-0.2,1.1,0.1c1.6,1.8,3.2,3.6,4.8,5.4c0.8,0.9-0.5,2.2-1.3,1.3c-1.6-1.8-3.2-3.6-4.8-5.4
				c0.4,0,0.8,0.1,1.1,0.1c-1.6,0.8-2.9,2-3.7,3.7c-0.3,0.6-1.3,0.6-1.6,0c-0.9-1.8-1.1-3.6,0-5.4c0.3,0.5,0.5,0.9,0.8,1.4
				c-4.3,0.3-9.1,1.9-11.8,5.5C13.4,76.3,11.8,75.3,12.5,74.4"/>
		</g>
	</g>
	<g id="XMLID_2_">
		<path id="XMLID_3_" d="M295.6,412.9l3.7-1.2c6.4-2.1,12.9-4.2,19.1-6.9c12.5-5.5,21.3-12.5,27.8-22c2-3,5.1-3.7,6.3-3.9
			c2.6-0.4,5.2-0.7,7.8-1c4.1-0.5,8.4-1.1,12.5-1.8c3.3-0.6,6.7-1.2,10-1.8c14.5-2.6,29.4-5.2,43.8-8.3c27.9-6,51.6-15.8,82.1-26.1
			c1-0.3,1.4-0.6,1.6-0.8c0.6-0.5,0.6-0.9,0.7-1c0-0.6-0.2-1.6-1.1-2.6c-20.7-24.9-40.1-42.7-66.9-56.4c-23.3-11.9-48-19-73.6-21.1
			l-1.7-0.1c-9.6-0.7-17.1,1.5-19.9,2.5c-62,31.3-124.9,31-186.8-0.8c-7.1-2.4-12.7-2.4-14.5-2.3c-0.2,0.1-0.5,0.1-0.8,0.2
			c-2.5,0.3-5,0.6-7.4,0.8c-1.2,0.1-2.5,0.2-3.7,0.3c-14.5,1.5-29.4,5-44.1,10.3c-36.2,13.2-61.8,32.5-88.5,64.7
			c-0.5,0.6-1,1.7-1,2.2c-0.1,0.9-0.1,1.2,2.4,2.3c39.9,17.2,92.8,30.6,154.3,40.9c2,0.3,4.1,1.4,5.9,3.4c1.5,1.6,3,3.3,4.3,4.8
			c2.5,2.9,4.9,5.5,7.5,7.7c12.3,10.3,26.6,14.9,38.9,18.1c4.5,1.2,6.9,4.8,6.9,10.3c0,3.3,0,6.6,0,10c0,4.8,0,9.6-0.1,14.3
			c0,1.4,0.2,2.5,0.6,3c0.3,0.3,1,0.8,2.8,0.8c10.1-0.1,20.3-0.1,30.5-0.1c10.2,0,20.5,0,30.7,0.1c1.3,0,2.3-0.3,2.8-0.8
			c0.4-0.5,0.6-1.6,0.6-3c-0.1-4.9-0.1-9.9-0.1-14.4l0-0.4c0-3.2,0-6.3,0-9.5C289,417.9,291.3,414.3,295.6,412.9z M19.9,318.1
			c0.5-0.6,1-1.1,1.5-1.5c28.3-26.1,59.8-43.1,93.5-50.6c9.7-2.2,19.7-3.4,29.8-4.5c7-0.8,14.4,0.8,22.5,4.9
			c18.1,9,36.8,15.2,55.6,18.3c16.2,2.7,32.6,3.4,48.9,2c24.4-2.1,48.7-9.1,72.4-20.8c7.7-3.8,16.1-5.1,26.5-4.1
			c18.1,1.8,35.8,6.1,52.6,12.8c23.6,9.4,45.7,23.5,65.7,42c0.5,0.4,0.9,0.9,1.5,1.5l0.6,0.7l12.2,13.2H6.7L19.9,318.1z M46.3,351
			l-0.1,0L3.5,336.1h505.7L466.9,351c-70,19.8-141.1,29.9-211.7,29.9C184.7,380.9,116.2,370.8,46.3,351z M285.8,447.2h-61.2v-32l7,1
			c15.7,2.1,31.6,2.1,47.1,0l7-1V447.2z M255.5,413.9c-1.2,0-2.5,0-3.7,0c-27.2-0.5-48.7-6-67.8-17.5l-0.2-0.1l-20-16.8l23.5,2.6
			c44.9,3.7,90.6,3.7,135.7,0l22.3-2.6l-19.1,16.9C306.1,408.4,283.6,413.9,255.5,413.9z"/>
		<path id="XMLID_53_" class="st9" d="M21.4,316.6c28.3-26.1,59.8-43.1,93.5-50.6c9.7-2.2,19.7-3.4,29.8-4.5
			c7-0.8,14.4,0.8,22.5,4.9c18.1,9,36.8,15.2,55.6,18.3c16.2,2.7,32.6,3.4,48.9,2c24.4-2.1,48.7-9.1,72.4-20.8
			c7.7-3.8,16.1-5.1,26.5-4.1c18.1,1.8,35.8,6.1,52.6,12.8c23.6,9.4,45.7,23.5,65.7,42c0.5,0.4,0.9,0.9,1.5,1.5l0.6,0.7l12.2,13.2
			H6.7"/>
		<path id="XMLID_55_" class="st9" d="M47.5,351l-0.1,0L4.9,336.1h503.5l-42,14.9c-69.7,19.8-140.5,29.9-210.8,29.9
			C185.3,380.9,117.1,370.8,47.5,351z"/>
		<path id="XMLID_57_" class="st9" d="M255.5,413.9c-1.2,0-2.5,0-3.7,0c-27.2-0.5-48.7-6-67.8-17.5l-0.2-0.1l-20-16.8l23.5,2.6
			c44.9,3.7,90.6,3.7,135.7,0l22.3-2.6l-19.1,16.9C306.1,408.4,283.6,413.9,255.5,413.9z"/>
		<path id="XMLID_59_" class="st9" d="M285.8,447.2h-61.2v-32l7,1c15.7,2.1,31.6,2.1,47.1,0l7-1V447.2z"/>
		<path id="XMLID_71_" class="st10" d="M195.4,253.2c-4.7,5.4-9.4,10.8-14.1,16.2c-0.9,1-2,1.4-3,0c-0.9-1.4-0.2-2.3,0.6-3.3
			c4.6-5.5,9.3-10.9,13.9-16.4c0.9-1,1.8-2.5,3.2-1c1.4,1.6,0.2,2.7-0.5,3.9c-0.1,0.1-0.2,0.3-0.3,0.4
			C195.3,253,195.4,253.1,195.4,253.2z"/>
		<path id="XMLID_61_" class="st10" d="M200,259.8c-4.5-5.6-9-11.2-13.5-16.9c-0.9-1.1-1.2-2.4,0-3.5c1.1-1.1,2-0.3,2.7,0.7
			c4.6,5.5,9.1,11.1,13.7,16.6c0.9,1.1,2.1,2.2,0.8,3.9c-1.3,1.7-2.3,0.3-3.2-0.6c-0.1-0.1-0.2-0.2-0.3-0.3
			C200.1,259.6,200.1,259.7,200,259.8z"/>
		<path id="XMLID_63_" class="st11" d="M148.7,265.5c0,0-84.9,12.2-128.3,61.4"/>
		<path id="XMLID_65_" class="st11" d="M479.9,341.6c0,0-82.9,22.1-118.8,26.4"/>
		<path id="XMLID_67_" class="st11" d="M201.4,397.8c0,0,66.9,22.2,106.4,0"/>
		<line id="XMLID_69_" class="st11" x1="230.8" y1="439.4" x2="280.2" y2="439.4"/>
		<path id="XMLID_73_" class="st11" d="M387.2,270.3c0,0,52.5,12.5,84.1,39.2"/>
	</g>
</g>
<g id="XMLID_75_">
</g>
<g id="XMLID_77_">
</g>
<g id="XMLID_79_">
</g>
<g id="XMLID_81_">
</g>
<g id="XMLID_83_">
</g>
<g id="XMLID_85_">
</g>
<g id="XMLID_87_">
</g>
<g id="XMLID_89_">
</g>
<g id="XMLID_91_">
</g>
<g id="XMLID_93_">
</g>
<g id="XMLID_95_">
</g>
<g id="XMLID_97_">
</g>
<g id="XMLID_99_">
</g>
<g id="XMLID_101_">
</g>
<g id="XMLID_103_">
</g>
</svg>
