<svg xmlns="http://www.w3.org/2000/svg" height="152.379mm" width="130.288mm" viewBox="0 0 461.65048 539.92704">
<g transform="translate(-161.763 -248.822)">
<g transform="matrix(-1.25 0 0 -1.25 232.219 530.113)">
<path d="m0 0s11.507-0.41 21.489 3.783c9.983 4.192 23.651 8.014 21.389 22.578-1.391 8.955-22.921 4.354-22.921 4.354s-15.763-5.819-26.229-5.227" fill="#f4d6b9"/>
</g>
<g transform="matrix(-1.25 0 0 -1.25 232.219 531.988)">
<path d="m0 0c11.194-0.319 21.678 3.307 31.696 7.961 4.585 2.129 8.774 5.082 11.26 9.573 1.95 3.521 2.846 10.012 0.207 13.404-4.627 5.948-15.523 4.092-21.917 3.038-9.364-1.545-17.688-5.812-27.518-5.488-1.936 0.064-1.93-2.936 0-3 14.632-0.483 28.062 8.833 42.766 5.917 6.05-1.2 6.041-7.563 3.871-12.357-2.034-4.496-6.993-7.015-11.232-8.985-9.18-4.264-18.904-7.355-29.133-7.063-1.936 0.056-1.931-2.945 0-3" fill="#1d1d1d"/>
</g>
<g transform="matrix(-1.25 0 0 -1.25 362.313 286.957)">
<path d="m0 0s0.25 26.25 14.25 26 8.25-30.5 8.25-30.5" fill="#b7d9d5"/>
</g>
<g transform="matrix(-1.25 0 0 -1.25 360.438 286.957)">
<path d="m0 0c0.109 8.048 2.706 27.261 14.663 24.198 9.034-2.315 6.113-21.759 4.891-28.299-0.354-1.891 2.537-2.698 2.892-0.798 1.686 9.017 4.352 29.085-7.711 32.175-13.957 3.576-17.608-17.916-17.735-27.276-0.026-1.936 2.974-1.933 3 0" fill="#1d1d1d"/>
</g>
<g transform="matrix(-1.25 0 0 -1.25 354.566 741.752)">
<path d="m0 0s19.75-34.123 30.371-27.438c10.622 6.686-13.694 35.481-13.694 35.481" fill="#f4d6b9"/>
</g>
<g transform="matrix(-1.25 0 0 -1.25 356.185 742.698)">
<path d="m0 0c3.529-6.072 7.606-11.876 12.067-17.296 4.323-5.251 12.047-14.278 19.818-10.98 7.744 3.287 2.416 14.752-0.111 19.614-3.434 6.607-7.951 12.827-12.742 18.522-1.247 1.483-3.357-0.651-2.121-2.121 3.844-4.569 24.084-30.246 12.698-33.679-6.666-2.01-15.005 10.073-18.243 14.329-3.179 4.178-6.137 8.584-8.776 13.125-0.971 1.672-3.565 0.162-2.59-1.514" fill="#1d1d1d"/>
</g>
<g transform="matrix(-1.25 0 0 -1.25 568.563 661.019)">
<path d="m0 0c-13.25 1.5-13.25 3.25-20 1.5s-25-13-18-18.25 7.75-7 17-5.5 28.5 5.75 28.5 5.75" fill="#b7d9d5"/>
</g>
<g transform="matrix(-1.25 0 0 -1.25 568.563 659.144)">
<path d="m0 0c-8.839 1.056-16.012 3.633-24.489-0.101-5.379-2.369-17.404-8.626-16.509-16.003 0.433-3.566 5.612-6.176 8.257-7.884 3.943-2.545 8.737-1.774 13.097-1.049 9.235 1.532 18.403 3.576 27.543 5.591 1.889 0.416 1.087 3.308-0.798 2.892-6.076-1.339-12.164-2.622-18.265-3.846-4.693-0.943-9.457-2.021-14.24-2.349-4.784-0.329-8.702 3.098-12.103 6.053-4.713 4.094 13.849 13.815 16.56 14.83 6.675 2.499 14.181-0.325 20.947-1.134 1.918-0.229 1.896 2.773 0 3" fill="#1d1d1d"/>
</g>
<g transform="matrix(-1.25 0 0 -1.25 167.181 387.779)">
<path d="m0 0c0-23.748-20.283-43-45.303-43-25.019 0-45.302 19.252-45.302 43s20.283 43 45.302 43c25.02 0 45.303-19.252 45.303-43" fill="#fff"/>
</g>
<g transform="matrix(-1.25 0 0 -1.25 169.056 387.779)">
<path d="m0 0c-0.391-23.821-20.633-41.158-43.803-41.5-23.173-0.342-43.42 18.19-43.802 41.5-0.391 23.821 21.225 41.167 43.802 41.5 23.173 0.342 43.42-18.19 43.803-41.5 0.031-1.933 3.032-1.936 3 0-0.353 21.477-15.946 38.792-36.596 43.436-20.864 4.691-43.113-5.702-52.697-24.764-9.5-18.894-2.534-41.22 13.698-53.747 16.85-13.002 42.528-12.397 58.927 1.036 10.365 8.491 16.447 20.608 16.668 34.039 0.032 1.936-2.969 1.933-3 0" fill="#1d1d1d"/>
</g>
<g transform="matrix(-1.25 0 0 -1.25 167.181 387.175)">
<path d="m0 0c0-6.262-5.223-11.338-11.666-11.338s-11.666 5.076-11.666 11.338 5.223 11.338 11.666 11.338 11.666-5.076 11.666-11.338" fill="#1d1d1d"/>
</g>
<g transform="matrix(-1.25 0 0 -1.25 167.181 387.175)">
<path d="m0 0c0-6.262-5.223-11.338-11.666-11.338s-11.666 5.076-11.666 11.338 5.223 11.338 11.666 11.338 11.666-5.076 11.666-11.338z" stroke="#2b2b2a" stroke-miterlimit="10" fill="none"/>
</g>
<g transform="matrix(-1.25 0 0 -1.25 178.226 386.112)">
<path d="m0 0c0-2.039-1.658-3.691-3.705-3.691s-3.707 1.652-3.707 3.691c0 2.038 1.66 3.691 3.707 3.691s3.705-1.653 3.705-3.691" fill="#fff"/>
</g>
<g transform="matrix(-1.25 0 0 -1.25 178.226 386.112)">
<path d="m0 0c0-2.039-1.658-3.691-3.705-3.691s-3.707 1.652-3.707 3.691c0 2.038 1.66 3.691 3.707 3.691s3.705-1.653 3.705-3.691z" stroke="#2b2b2a" stroke-miterlimit="10" fill="none"/>
</g>
<g transform="matrix(-1.25 0 0 -1.25 553.109 395.707)">
<path d="m0 0c0.909 13.007 22 58 58 74s50 16 85 19 88-28 98-41 17-24.797 19-42.398c2-17.602 2-25.602 5-43.602s-1-87-12-113c-7.273-17.191-18.481-59.741-42.876-92.958-12.499-17.019-28.459-31.588-49.124-39.042-61-22-97.007-9.358-106-9-25.896 1.032-31.273 8.471-61 44-17.988 21.5-20.863 47.24-20.863 65.25 0 21.875 30 73.75 31 103.75 1.778 53.354-6.607 39.667-4.137 75" fill="#b7d9d5"/>
</g>
<g transform="matrix(-1.25 0 0 -1.25 551.234 395.707)">
<path d="m0 0c0.554 6.49 3.569 12.977 6.315 18.772 4.347 9.174 9.878 17.821 16.185 25.764 7.116 8.963 15.551 16.904 25.208 23.067 11.1 7.083 24.286 11.676 36.812 15.543 10.639 3.286 21.59 5.08 32.645 6.234 11.484 1.199 23.398 2.933 34.946 2.083 22.343-1.644 44.478-11.832 63.522-23.064 7.174-4.232 14.353-8.908 20.35-14.732 7.848-7.624 14.003-18.798 17.641-29.007 4.459-12.512 4.448-26.386 5.778-39.484 0.952-9.368 2.954-18.618 3.39-28.028 0.897-19.392-0.691-39.077-2.952-58.323-1.218-10.367-2.841-20.715-5.245-30.877-1.794-7.582-4.707-14.604-7.387-21.884-17.021-46.268-35.461-101.959-85.116-122.476-23.397-9.668-49.801-14.534-75.095-13.972-7.486 0.167-14.941 0.954-22.329 2.155-4.076 0.663-8.13 1.596-12.266 1.777-7.768 0.342-15.399 1.591-22.243 5.449-7.67 4.323-13.743 11.33-19.495 17.845-9.356 10.598-19.419 21.365-26.254 33.797-6.259 11.383-9.402 24.306-10.673 37.155-0.893 9.024-0.79 17.486 1.573 26.255 2.684 9.962 6.614 19.601 10.371 29.193 7.584 19.362 17.076 39.714 18.412 60.751 0.933 14.696 0.733 30.022-2.108 44.525-2.085 10.64-2.717 20.601-1.985 31.482 0.13 1.932-2.871 1.919-3 0-0.492-7.303-0.777-14.658 0.172-21.937 0.617-4.728 1.807-9.356 2.597-14.055 3.285-19.54 2.865-40.991-2.534-60.046-6.08-21.454-15.919-41.611-22.894-62.759-6.072-18.411-4.82-37.458 0.757-55.951 3.779-12.534 10.491-23.313 18.831-33.29 7.63-9.126 15.108-18.504 23.615-26.841 5.045-4.946 10.69-9.116 17.339-11.608 6.441-2.415 13.124-2.39 19.853-3.115 12.756-1.373 24.943-3.901 37.898-3.828 24.827 0.141 50.791 5.632 73.538 15.515 46.587 20.243 66.409 73.962 82.161 118.271 2.579 7.254 5.728 14.317 7.84 21.725 2.668 9.353 4.26 19.023 5.619 28.639 2.807 19.851 4.316 40.04 4.16 60.093-0.059 7.746-0.995 15.096-2.122 22.745-1.864 12.654-2.254 25.478-4.093 38.128-2.813 19.36-13.248 38.319-28.902 50.225-16.349 12.435-35.841 21.731-55.394 27.823-9.839 3.066-20.163 5.099-30.5 4.952-11.782-0.167-23.905-1.703-35.591-3.213-14.334-1.851-28.049-5.752-41.479-11.05-14.631-5.772-27.459-12.833-38.71-23.943-9.512-9.391-17.323-20.593-23.536-32.395-3.855-7.322-7.911-15.712-8.625-24.085-0.165-1.929 2.837-1.913 3 0" fill="#1d1d1d"/>
</g>
<g transform="matrix(-1.25 0 0 -1.25 516.063 741.331)">
<path d="m0 0s-10.5-31.75 5.5-33.5 17.5 29.25 17.5 29.25" fill="#f4d6b9"/>
</g>
<g transform="matrix(-1.25 0 0 -1.25 517.871 740.833)">
<path d="m0 0c-3.175-9.697-8.658-33.092 6.547-35.345 14.919-2.21 18.851 20.091 19.399 30.697 0.1 1.934-2.9 1.924-3 0-0.474-9.179-3.561-29.588-16.463-27.676-12.003 1.778-5.966 24.27-3.59 31.527 0.604 1.844-2.294 2.627-2.893 0.797" fill="#1d1d1d"/>
</g>
<g transform="matrix(-1.25 0 0 -1.25 520.048 735.906)">
<path d="m0 0s2.362-11.875 7.241-15.042c0 0 0.88 8.5 1.713 8.833 0.834 0.333 12.167-8.999 10.5-10.333-1.666-1.334 9.688 5.904 9.677 9.202" fill="#b7d9d5"/>
</g>
<g transform="matrix(-1.25 0 0 -1.25 521.855 736.404)">
<path d="m0 0c1.155-5.636 3.161-12.342 7.931-15.938 1.009-0.762 2.152 0.308 2.257 1.294 0.155 1.469 0.348 2.933 0.566 4.393 0.137 0.912 0.317 1.813 0.52 2.711 0.219 0.975-1.292 0.458 0.16-0.537 1.249-0.857 8.099-7.276 8.254-7.14-0.371-0.324-0.558-0.992-0.386-1.459 0.003-0.009 0.006-0.016 0.009-0.025 0.351-0.952 1.283-1.345 2.204-0.897 3.521 1.714 9.897 6.1 10.509 10.258 0.279 1.892-2.612 2.705-2.893 0.797-0.485-3.291-6.317-7.095-9.131-8.464 0.735-0.299 1.469-0.597 2.204-0.896 0.304-0.826-0.598-1.88 0.137-0.78 0.209 0.313 0.203 0.699 0.215 1.057 0.034 1.053-0.898 2.17-1.528 2.906-2.35 2.747-5.161 5.112-8.08 7.233-5.482 3.985-5.395-5.705-5.76-9.157 0.752 0.432 1.504 0.864 2.256 1.295-4.025 3.036-5.58 9.411-6.551 14.146-0.389 1.894-3.28 1.091-2.893-0.797" fill="#1d1d1d"/>
</g>
<g transform="matrix(-1.25 0 0 -1.25 358.021 720.684)">
<path d="m0 0c-20.667 11.114-21.145 27.75-5 48.447 11.865 15.212 25.333 30.333 32.732 74 3.933 23.208 26.819 50.574 48.043 48.953 21.225-1.62 31.206-24.163 23.431-45.754-7.776-21.59-36.107-104.477-56.49-115.171 0 0-23.918-20.584-42.716-10.475" fill="#cfe9ec"/>
</g>
<g transform="matrix(-1.25 0 0 -1.25 295.931 400.707)">
<path d="m0 0c0-28.167-24.387-51-54.469-51-30.083 0-54.47 22.833-54.47 51s24.387 51 54.47 51c30.082 0 54.469-22.833 54.469-51" fill="#fff"/>
</g>
<g transform="matrix(-1.25 0 0 -1.25 297.806 400.707)">
<path d="m0 0c-0.349-24.958-19.498-44.272-43.423-48.705-24.459-4.532-50.443 8.91-59.525 32.251-9.017 23.172 2.986 48.186 24.029 59.618 21.985 11.944 50.469 6.53 67.027-11.906 7.692-8.563 11.733-19.827 11.892-31.258 0.027-1.933 3.027-1.936 3 0-0.3 21.468-13.841 39.745-33.382 48.034-19.994 8.482-43.604 4.573-60.209-9.169-16.349-13.53-22.376-36.242-15.25-56.116 7.157-19.962 26.591-32.699 47.126-34.968 31.189-3.447 61.269 20.259 61.715 52.219 0.027 1.936-2.973 1.933-3 0" fill="#2b2b2a"/>
</g>
<g transform="matrix(-1.25 0 0 -1.25 322.106 391.54)">
<path d="m0 0c0-8.836-7.909-16-17.666-16s-17.666 7.164-17.666 16 7.909 16 17.666 16 17.666-7.164 17.666-16" fill="#1d1d1d"/>
</g>
<g transform="matrix(-1.25 0 0 -1.25 322.106 391.54)">
<path d="m0 0c0-8.836-7.909-16-17.666-16s-17.666 7.164-17.666 16 7.909 16 17.666 16 17.666-7.164 17.666-16z" stroke="#2b2b2a" stroke-miterlimit="10" fill="none"/>
</g>
<g transform="matrix(-1.25 0 0 -1.25 344.188 385.73)">
<path d="m0 0c0-2.567-2.09-4.648-4.667-4.648s-4.667 2.081-4.667 4.648 2.09 4.648 4.667 4.648 4.667-2.081 4.667-4.648" fill="#fff"/>
</g>
<g transform="matrix(-1.25 0 0 -1.25 344.188 385.73)">
<path d="m0 0c0-2.567-2.09-4.648-4.667-4.648s-4.667 2.081-4.667 4.648 2.09 4.648 4.667 4.648 4.667-2.081 4.667-4.648z" stroke="#2b2b2a" stroke-miterlimit="10" fill="none"/>
</g>
<g transform="matrix(-1.25 0 0 -1.25 497.938 338.207)">
<path d="m0 0-19.667 25s-9.833 15.906 5.5 22.203c15.334 6.297 25.834-5.87 26.667-7.036 0.833-1.167 13.167-19.834 13.167-19.834" fill="#b7d9d5"/>
</g>
<g transform="matrix(-1.25 0 0 -1.25 496.612 336.881)">
<path d="m0 0c-5.035 6.401-10.07 12.801-15.105 19.202-4.102 5.214-8.241 9.813-7.045 17.405 1.354 8.596 13.062 10.772 20.067 9.323 4.47-0.925 9.431-3.892 12.227-7.581 4.767-6.289 8.816-13.249 13.167-19.833 1.062-1.606 3.661-0.105 2.591 1.514-4.574 6.922-8.656 14.97-14.239 21.12-3.969 4.371-9.541 7.241-15.348 8.096-6.518 0.961-15.653-1.349-19.413-7.235-4.272-6.688-1.815-15.16 2.767-20.984l18.21-23.148c1.195-1.52 3.303 0.619 2.121 2.121" fill="#1d1d1d"/>
</g>
<g transform="matrix(-1.25 0 0 -1.25 501.063 298.415)">
<path d="m0 0s-0.104-9 3.948-13 7.719-6.833 9.719-5.333-3.5 12.5-5.834 13.833c-2.333 1.333-3.833 5-7.833 4.5" fill="#1e1e1f"/>
</g>
<g transform="matrix(-1.25 0 0 -1.25 502.938 298.415)">
<path d="m0 0c-0.019-4.495 0.861-9.5 3.602-13.153 1.339-1.785 10.627-10.975 13.058-5.723 1.721 3.716-1.787 9.276-3.666 12.328-1.186 1.927-2.651 2.934-4.246 4.444-2.217 2.1-4.019 3.747-7.248 3.604-1.927-0.085-1.935-3.085 0-3 2.773 0.123 6.465-3.225 8.16-5.462 1.95-2.575 3.423-5.76 4.253-8.867 0.843-3.154-3.75 0.578-4.458 1.158-2.214 1.816-4.081 3.699-5.116 6.396-0.988 2.58-1.351 5.521-1.339 8.275 0.008 1.935-2.992 1.934-3 0" fill="#2b2b2a"/>
</g>
<g transform="matrix(-1.25 0 0 -1.25 222.217 397.56)">
<path d="m0 0c0-7.281-8.208-13.184-18.333-13.184s-18.334 5.903-18.334 13.184 8.209 13.184 18.334 13.184 18.333-5.903 18.333-13.184" fill="#9d9080"/>
</g>
<g transform="matrix(-1.25 0 0 -1.25 224.092 397.56)">
<path d="m0 0c-0.933-15.759-32.734-15.759-33.667 0-0.49 8.28 10.556 11.492 16.834 11.684 7.036 0.215 16.359-3.677 16.833-11.684 0.113-1.922 3.114-1.934 3 0-1.163 19.66-38.504 19.66-39.667 0-0.594-10.034 11.926-14.441 19.834-14.684 8.846-0.27 19.26 4.992 19.833 14.684 0.114 1.934-2.887 1.922-3 0" fill="#1d1d1d"/>
</g>
<g transform="matrix(-1.25 0 0 -1.25 261.966 436.419)">
<path d="m0 0v-24.75s-1.379-3.441 8.27-3.934c9.649-0.492 10.751 0 10.751 0s4.961-1.638 6.891 6.393c1.931 8.031 6.894 23.111 6.894 23.111l-32.806-0.82z" fill="#fff"/>
</g>
<g transform="matrix(-1.25 0 0 -1.25 263.842 436.419)">
<path d="m0 0v-21.921c0-2.042-0.415-2.675 0.126-4.343 1.145-3.528 6.747-3.704 9.644-3.92 3.369-0.251 7.774-0.89 11.133 0.048-1.569-0.438 0.926-0.181 1.489-0.111 1.657 0.21 2.929 1.123 4.042 2.319 3.466 3.724 4.035 11.35 5.454 16.08 1.232 4.107 2.526 8.196 3.864 12.269 0.302 0.918-0.503 1.923-1.446 1.899-10.936-0.273-21.87-0.547-32.806-0.82-1.931-0.048-1.936-3.048 0-3 10.936 0.273 21.87 0.547 32.806 0.82-0.483 0.633-0.964 1.266-1.447 1.899-2.505-7.631-4.967-15.311-6.893-23.111-0.574-2.327-1.715-5.378-4.537-5.427-0.456-0.008-0.858 0.244-1.324 0.076-2.368-0.858-6.104-0.12-8.517-0.027-2.174 0.085-8.588-0.052-8.588 2.57v6.658 18.042c0 1.935-3 1.935-3 0" fill="#1d1d1d"/>
</g>
<g transform="matrix(-1.25 0 0 -1.25 246.562 409.654)">
<path d="m0 0s-8.404 3.956-17.07 1.79c-8.668-2.167-18.834-11.166-18-19.833 0.832-8.668 9.666-14.501 15-14.668 2.012-0.062 6.723-1.832 17.736-1.832 9.853 0 11.501 0.932 17.334 1.166 7.469 0.301 12.762 6 12.596 16.5s-7.334 15.834-15 15.334-12.596 1.543-12.596 1.543" fill="#f4d6b9"/>
</g>
<g transform="matrix(-1.25 0 0 -1.25 245.616 408.035)">
<path d="m0 0c-13.778 6.253-34.188-0.124-37.224-16.461-1.328-7.154 4.143-13.726 9.902-17.077 4.753-2.765 12.1-3.084 17.458-3.552 8.465-0.739 16.797 0.351 25.211 1.003 7.191 0.558 11.424 6.52 12.656 13.117 1.359 7.284-0.732 14.885-6.863 19.269-6.209 4.439-14.638 1.153-21.498 3.852-1.802 0.709-2.577-2.193-0.797-2.893 4.469-1.759 9.43-1.695 14.139-1.566 8.615 0.236 12.414-7.996 12.339-15.403-0.078-7.66-4.494-13.132-12.194-13.517-6.072-0.304-11.983-1.15-18.099-1.093-10.49 0.099-24.871 1.163-28.895 12.741-2.836 8.16 5.477 15.417 11.765 18.847 6.168 3.365 14.273 3.008 20.586 0.142 1.747-0.793 3.274 1.792 1.514 2.591" fill="#1d1d1d"/>
</g>
<g transform="matrix(-1.25 0 0 -1.25 441.036 566.332)">
<path d="m0 0s-1.948-10.389 0-20.129c1.948-9.739 7.792-24.023 19.479-21.427 11.688 2.598 5.194 19.804 5.194 19.804s-3.571 13.96-1.623 23.375" fill="#f4d6b9"/>
</g>
<g transform="matrix(-1.25 0 0 -1.25 442.844 565.834)">
<path d="m0 0c-1.801-10.016-1.204-20.82 2.82-30.246 3.322-7.779 11.25-17.347 20.847-12.353 6.744 3.51 6.314 11.721 4.731 18.119-2.049 8.277-3.977 16.722-2.455 25.306 0.335 1.891-2.555 2.7-2.893 0.797-1.376-7.759-0.29-15.816 1.447-23.44 1.011-4.439 2.531-8.507 1.592-13.173-0.989-4.914-6.067-6.433-10.478-5.416-4.861 1.121-7.797 6.413-9.719 10.548-4.122 8.863-4.711 19.539-2.999 29.061 0.34 1.891-2.551 2.699-2.893 0.797" fill="#1d1d1d"/>
</g>
<g transform="matrix(-1.25 0 0 -1.25 450.313 560.646)">
<path d="m0 0c5.894-8.667 20.225-9.583 20.225-9.583s-2.334 3.582 0 7.249c0 0 2.108-4.416 6.442-6.416l7.666 8.75" fill="#b7d9d5"/>
</g>
<g transform="matrix(-1.25 0 0 -1.25 451.932 561.592)">
<path d="m0 0c4.929-6.648 13.456-9.75 21.52-10.326 1.158-0.083 1.839 1.329 1.295 2.257-1.046 1.786-1.012 3.591 0 5.735h-2.59c1.523-3.02 4.034-5.364 6.98-6.954 0.566-0.306 1.366-0.28 1.817 0.234 2.556 2.917 5.112 5.833 7.667 8.75 1.27 1.449-0.843 3.579-2.121 2.121-2.555-2.917-5.111-5.833-7.667-8.75 0.606 0.079 1.212 0.157 1.818 0.235-2.531 1.366-4.6 3.294-5.904 5.878-0.484 0.96-2.118 1-2.59 0-1.383-2.93-1.704-5.853 0-8.763 0.432 0.752 0.863 1.505 1.295 2.257-6.894 0.493-14.701 3.137-18.929 8.84-1.139 1.535-3.745 0.042-2.591-1.514" fill="#1d1d1d"/>
</g>
</g>
</svg>